<?xml version="1.0" encoding="utf-8" ?>
<svg baseProfile="full" height="160mm" version="1.1" viewBox="0 0 240 160" width="240mm" xmlns="http://www.w3.org/2000/svg" xmlns:ev="http://www.w3.org/2001/xml-events" xmlns:xlink="http://www.w3.org/1999/xlink"><defs /><rect fill="white" height="160" width="240" x="0" y="0" /><text fill="#0A4E86" font-family="Arial" font-size="6" font-weight="bold" x="8" y="12">TACTILERIDE V0.1 - BLE HID PROTOTYPE WIRING</text><rect fill="#F2F8FC" height="108" rx="5" stroke="#0A4E86" stroke-width="0.8" width="72" x="92" y="25" /><text fill="#0A4E86" font-family="Arial" font-size="5" font-weight="bold" x="108" y="38">XIAO nRF52840</text><line stroke="#0A4E86" stroke-width="0.5" x1="32" x2="92" y1="52" y2="52" /><text fill="#123047" font-family="Arial" font-size="3.5" x="6" y="53.8">VOL +</text><text fill="#0A4E86" font-family="Arial" font-size="3.5" font-weight="bold" x="96" y="53.8">D0</text><circle cx="52" cy="52" fill="white" r="2" stroke="#0A4E86" stroke-width="0.5" /><line stroke="#0A4E86" stroke-width="0.5" x1="32" x2="92" y1="67" y2="67" /><text fill="#123047" font-family="Arial" font-size="3.5" x="6" y="68.8">VOL -</text><text fill="#0A4E86" font-family="Arial" font-size="3.5" font-weight="bold" x="96" y="68.8">D1</text><circle cx="52" cy="67" fill="white" r="2" stroke="#0A4E86" stroke-width="0.5" /><line stroke="#0A4E86" stroke-width="0.5" x1="32" x2="92" y1="82" y2="82" /><text fill="#123047" font-family="Arial" font-size="3.5" x="6" y="83.8">PLAY / PAUSE</text><text fill="#0A4E86" font-family="Arial" font-size="3.5" font-weight="bold" x="96" y="83.8">D2</text><circle cx="52" cy="82" fill="white" r="2" stroke="#0A4E86" stroke-width="0.5" /><line stroke="#0A4E86" stroke-width="0.5" x1="32" x2="92" y1="97" y2="97" /><text fill="#123047" font-family="Arial" font-size="3.5" x="6" y="98.8">NEXT</text><text fill="#0A4E86" font-family="Arial" font-size="3.5" font-weight="bold" x="96" y="98.8">D3</text><circle cx="52" cy="97" fill="white" r="2" stroke="#0A4E86" stroke-width="0.5" /><line stroke="#0A4E86" stroke-width="0.5" x1="32" x2="92" y1="112" y2="112" /><text fill="#123047" font-family="Arial" font-size="3.5" x="6" y="113.8">PREVIOUS</text><text fill="#0A4E86" font-family="Arial" font-size="3.5" font-weight="bold" x="96" y="113.8">D4</text><circle cx="52" cy="112" fill="white" r="2" stroke="#0A4E86" stroke-width="0.5" /><line stroke="#5B6770" stroke-width="0.5" x1="32" x2="32" y1="52" y2="120" /><line stroke="#5B6770" stroke-width="0.5" x1="32" x2="92" y1="120" y2="120" /><text fill="#0A4E86" font-family="Arial" font-size="3.5" font-weight="bold" x="96" y="122">GND</text><rect fill="#FFF3F1" height="24" rx="3" stroke="#B33430" stroke-width="0.7" width="38" x="190" y="65" /><text fill="#B33430" font-family="Arial" font-size="4" font-weight="bold" x="201" y="77">1S LiPo</text><line stroke="#0A4E86" stroke-width="0.6" x1="164" x2="177" y1="70" y2="70" /><line stroke="#0A4E86" stroke-width="0.6" x1="181" x2="190" y1="67" y2="70" /><text fill="#123047" font-family="Arial" font-size="3.5" x="174" y="62">SPST</text><line stroke="#0A4E86" stroke-width="0.6" x1="164" x2="177" y1="70" y2="70" /><line stroke="#5B6770" stroke-width="0.6" x1="164" x2="190" y1="98" y2="98" /><text fill="#0A4E86" font-family="Arial" font-size="3.5" font-weight="bold" x="151" y="72">BAT+</text><text fill="#0A4E86" font-family="Arial" font-size="3.5" font-weight="bold" x="151" y="100">GND</text></svg>
